# xmcd CD database file
#
# Track frame offsets:
#	151
#	22171
#	39229
#	43270
#	56330
#	72474
#	91550
#	98336
#	117704
#	119857
#	131372
#	147621
#	150815
#	168346
#	172263
#	189439
#	205205
#	218892
#	240322
#
# Disc length: 3220 seconds
#
# Revision: 0
# Processed by: cddbd v1.5.2PL0 Copyright (c) Steve Scherf et al.
# Submitted via: CDex 1.70beta2
#
DISCID=0d0c9213
DTITLE=Preston Fulp - Sawmill Worker
DYEAR=2001
DGENRE=Blues
TTITLE0=Careless Love
TTITLE1=Farther Along
TTITLE2=Chicken Stews
TTITLE3=Wedding Bells
TTITLE4=Banks of the Ohio
TTITLE5=Glory to His Name
TTITLE6=The Church
TTITLE7=I Shall Not Be Moved
TTITLE8=I'm a Sawmill Worker
TTITLE9=In the Pines
TTITLE10=Renfro valley
TTITLE11=Moonshine Story
TTITLE12=Cindy
TTITLE13=Dreaming About the Guitar
TTITLE14=You're Going to Be Sorry
TTITLE15=Little Darling
TTITLE16=Sharecropping Life
TTITLE17=Going Down the Road Feeling Bad
TTITLE18=Music from the Heart
EXTD=YEAR: 2001
EXTT0=
EXTT1=
EXTT2=
EXTT3=
EXTT4=
EXTT5=
EXTT6=
EXTT7=
EXTT8=
EXTT9=
EXTT10=
EXTT11=
EXTT12=
EXTT13=
EXTT14=
EXTT15=
EXTT16=
EXTT17=
EXTT18=
PLAYORDER=
